# xmcd
#
# Track frame offsets:
#	150
#	22883
#	36810
#	53054
#	84761
#	106043
#	124808
#	145232
#	163415
#	179240
#	194310
#	216574
#
# Disc length: 3159 seconds
#
# Revision: 1
# Processed by: cddbd v1.5.2PL0 Copyright (c) Steve Scherf et al.
# Submitted via: audiograbber 1.83.01
#
DISCID=a80c550c
DTITLE=The Vince Mehl Blues Band - A la clé
DYEAR=2012
DGENRE=Blues
TTITLE0=Merci
TTITLE1=Je doute de moi
TTITLE2=Une place à tes côtés
TTITLE3=A la clé
TTITLE4=Show'n'roll
TTITLE5=Ce que j'aime
TTITLE6=Le blues de la loose
TTITLE7=Toujours sur la route
TTITLE8=Du temps au temps
TTITLE9=Fest-noz à Quiberon
TTITLE10=On va y arriver
TTITLE11=San Francisco
EXTD=
EXTT0=
EXTT1=
EXTT2=
EXTT3=
EXTT4=
EXTT5=
EXTT6=
EXTT7=
EXTT8=
EXTT9=
EXTT10=
EXTT11=
PLAYORDER=
